<svg width="24" height="24" viewBox="0 0 24 24" fill="none" xmlns="http://www.w3.org/2000/svg">
  <rect x="6.00024" y="6" width="12" height="12" rx="5" fill="#F5CB91"/>
  <rect x="11.0002" y="2" width="2" height="2" rx="1" fill="#F5CB91"/>
  <rect x="17.0002" y="5" width="2" height="2" rx="1" fill="#F5CB91"/>
  <rect x="11.0002" y="8" width="2" height="2" rx="1" fill="#F5CB91"/>
  <rect x="5.00024" y="5" width="2" height="2" rx="1" fill="#F5CB91"/>
  <rect x="3.00024" y="11" width="2" height="2" rx="1" fill="#F5CB91"/>
  <rect x="9.00024" y="12" width="2" height="2" rx="1" fill="#F5CB91"/>
  <rect x="5.00024" y="17" width="2" height="2" rx="1" fill="#F5CB91"/>
  <rect x="11.0002" y="19" width="2" height="2" rx="1" fill="#F5CB91"/>
  <rect x="17.0002" y="17" width="2" height="2" rx="1" fill="#F5CB91"/>
  <rect x="14.0002" y="13" width="2" height="2" rx="1" fill="#F5CB91"/>
  <rect x="19.0002" y="11" width="2" height="2" rx="1" fill="#F5CB91"/>
  <circle cx="12.0002" cy="12" r="6.25" stroke="#3E43BE"/>
  <path d="M12.0002 5L12.0002 5.5" stroke="#3E43BE" stroke-linecap="round"/>
  <path d="M12.0002 17.5V19.5" stroke="#3E43BE" stroke-linecap="round"/>
  <path d="M7.14669 7.85355C7.34195 8.04882 7.65854 8.04882 7.8538 7.85355C8.04906 7.65829 8.04906 7.34171 7.8538 7.14645L7.14669 7.85355ZM6.64669 7.35355L7.14669 7.85355L7.8538 7.14645L7.3538 6.64645L6.64669 7.35355Z" fill="#3E43BE"/>
  <path d="M15.3967 7.89645C15.2014 8.09171 15.2014 8.40829 15.3967 8.60355C15.592 8.79882 15.9085 8.79882 16.1038 8.60355L15.3967 7.89645ZM16.6467 6.64645L15.3967 7.89645L16.1038 8.60355L17.3538 7.35355L16.6467 6.64645Z" fill="#3E43BE"/>
  <path d="M16.8538 16.1464C16.6585 15.9512 16.342 15.9512 16.1467 16.1464C15.9514 16.3417 15.9514 16.6583 16.1467 16.8536L16.8538 16.1464ZM17.3538 16.6464L16.8538 16.1464L16.1467 16.8536L16.6467 17.3536L17.3538 16.6464Z" fill="#3E43BE"/>
  <path d="M4.50024 12L5.50024 12" stroke="#3E43BE" stroke-linecap="round"/>
  <path d="M17.5002 12L19.5002 12" stroke="#3E43BE" stroke-linecap="round"/>
  <path d="M8.6038 16.1036C8.79906 15.9083 8.79906 15.5917 8.6038 15.3964C8.40854 15.2012 8.09195 15.2012 7.89669 15.3964L8.6038 16.1036ZM7.3538 17.3536L8.6038 16.1036L7.89669 15.3964L6.64669 16.6464L7.3538 17.3536Z" fill="#3E43BE"/>
  <path d="M12.5002 9C12.5002 9.55228 12.0525 10 11.5002 10C10.948 10 10.5002 9.55228 10.5002 9C10.5002 8.44772 10.948 8 11.5002 8C12.0525 8 12.5002 8.44772 12.5002 9Z" stroke="#3E43BE"/>
  <path d="M10.5002 13C10.5002 13.5523 10.0525 14 9.50024 14C8.94796 14 8.50024 13.5523 8.50024 13C8.50024 12.4477 8.94796 12 9.50024 12C10.0525 12 10.5002 12.4477 10.5002 13Z" stroke="#3E43BE"/>
  <path d="M16.0002 14C16.0002 14.5523 15.5525 15 15.0002 15C14.448 15 14.0002 14.5523 14.0002 14C14.0002 13.4477 14.448 13 15.0002 13C15.5525 13 16.0002 13.4477 16.0002 14Z" stroke="#3E43BE"/>
  <circle cx="1" cy="1" r="1" transform="matrix(1 0 0 -1 11.0002 4.5)" stroke="#3E43BE"/>
  <path d="M13.0002 20.5C13.0002 19.9477 12.5525 19.5 12.0002 19.5C11.448 19.5 11.0002 19.9477 11.0002 20.5C11.0002 21.0523 11.448 21.5 12.0002 21.5C12.5525 21.5 13.0002 21.0523 13.0002 20.5Z" stroke="#3E43BE"/>
  <circle cx="1" cy="1" r="1" transform="matrix(1 0 0 -1 5.00024 7)" stroke="#3E43BE"/>
  <circle cx="1" cy="1" r="1" transform="matrix(1 0 0 -1 17.0002 7)" stroke="#3E43BE"/>
  <circle cx="1" cy="1" r="1" transform="matrix(1 0 0 -1 17.0002 19)" stroke="#3E43BE"/>
  <path d="M4.50024 12C4.50024 11.4477 4.05253 11 3.50024 11C2.94796 11 2.50024 11.4477 2.50024 12C2.50024 12.5523 2.94796 13 3.50024 13C4.05253 13 4.50024 12.5523 4.50024 12Z" stroke="#3E43BE"/>
  <path d="M21.5002 12C21.5002 11.4477 21.0525 11 20.5002 11C19.948 11 19.5002 11.4477 19.5002 12C19.5002 12.5523 19.948 13 20.5002 13C21.0525 13 21.5002 12.5523 21.5002 12Z" stroke="#3E43BE"/>
  <circle cx="1" cy="1" r="1" transform="matrix(1 0 0 -1 5.00024 19)" stroke="#3E43BE"/>
</svg>