<svg width="27" height="29" viewBox="0 0 27 29" fill="none" xmlns="http://www.w3.org/2000/svg">
<g id="calendar">
<rect id="Rectangle 111" x="6" y="7" width="15.5556" height="13.1057" fill="#F5CB91"/>
<path id="calendar_2" d="M7.69319 21.1301H18.9653C20.7416 21.1301 21.6667 20.1635 21.6667 18.3166V7.81349C21.6667 5.9666 20.7416 5 18.9653 5H7.69319C5.92502 5 5 5.95797 5 7.81349V18.3166C5 20.1635 5.92502 21.1301 7.69319 21.1301ZM7.685 19.4126C7.00557 19.4126 6.62901 19.0415 6.62901 18.2821V10.3422C6.62901 9.5827 7.00557 9.2116 7.685 9.2116H18.9735C19.6529 9.2116 20.0295 9.5827 20.0295 10.3422V18.2821C20.0295 19.0415 19.6529 19.4126 18.9735 19.4126H7.685ZM11.7534 12.1891H12.2364C12.5311 12.1891 12.6293 12.0941 12.6293 11.7921V11.2829C12.6293 10.9722 12.5311 10.8773 12.2364 10.8773H11.7534C11.4587 10.8773 11.3605 10.9722 11.3605 11.2829V11.7921C11.3605 12.0941 11.4587 12.1891 11.7534 12.1891ZM14.4303 12.1891H14.9132C15.1997 12.1891 15.298 12.0941 15.298 11.7921V11.2829C15.298 10.9722 15.1997 10.8773 14.9132 10.8773H14.4303C14.1356 10.8773 14.0373 10.9722 14.0373 11.2829V11.7921C14.0373 12.0941 14.1356 12.1891 14.4303 12.1891ZM17.0989 12.1891H17.5819C17.8766 12.1891 17.9748 12.0941 17.9748 11.7921V11.2829C17.9748 10.9722 17.8766 10.8773 17.5819 10.8773H17.0989C16.8124 10.8773 16.7141 10.9722 16.7141 11.2829V11.7921C16.7141 12.0941 16.8124 12.1891 17.0989 12.1891ZM9.08481 14.968H9.55959C9.85429 14.968 9.95252 14.8731 9.95252 14.5624V14.0532C9.95252 13.7512 9.85429 13.6562 9.55959 13.6562H9.08481C8.79011 13.6562 8.69188 13.7512 8.69188 14.0532V14.5624C8.69188 14.8731 8.79011 14.968 9.08481 14.968ZM11.7534 14.968H12.2364C12.5311 14.968 12.6293 14.8731 12.6293 14.5624V14.0532C12.6293 13.7512 12.5311 13.6562 12.2364 13.6562H11.7534C11.4587 13.6562 11.3605 13.7512 11.3605 14.0532V14.5624C11.3605 14.8731 11.4587 14.968 11.7534 14.968ZM14.4303 14.968H14.9132C15.1997 14.968 15.298 14.8731 15.298 14.5624V14.0532C15.298 13.7512 15.1997 13.6562 14.9132 13.6562H14.4303C14.1356 13.6562 14.0373 13.7512 14.0373 14.0532V14.5624C14.0373 14.8731 14.1356 14.968 14.4303 14.968ZM17.0989 14.968H17.5819C17.8766 14.968 17.9748 14.8731 17.9748 14.5624V14.0532C17.9748 13.7512 17.8766 13.6562 17.5819 13.6562H17.0989C16.8124 13.6562 16.7141 13.7512 16.7141 14.0532V14.5624C16.7141 14.8731 16.8124 14.968 17.0989 14.968ZM9.08481 17.7384H9.55959C9.85429 17.7384 9.95252 17.6434 9.95252 17.3414V16.8322C9.95252 16.5215 9.85429 16.4266 9.55959 16.4266H9.08481C8.79011 16.4266 8.69188 16.5215 8.69188 16.8322V17.3414C8.69188 17.6434 8.79011 17.7384 9.08481 17.7384ZM11.7534 17.7384H12.2364C12.5311 17.7384 12.6293 17.6434 12.6293 17.3414V16.8322C12.6293 16.5215 12.5311 16.4266 12.2364 16.4266H11.7534C11.4587 16.4266 11.3605 16.5215 11.3605 16.8322V17.3414C11.3605 17.6434 11.4587 17.7384 11.7534 17.7384ZM14.4303 17.7384H14.9132C15.1997 17.7384 15.298 17.6434 15.298 17.3414V16.8322C15.298 16.5215 15.1997 16.4266 14.9132 16.4266H14.4303C14.1356 16.4266 14.0373 16.5215 14.0373 16.8322V17.3414C14.0373 17.6434 14.1356 17.7384 14.4303 17.7384Z" fill="#3E43BE"/>
</g>
</svg>
