<svg width="15" height="15" viewBox="0 0 15 15" fill="none" xmlns="http://www.w3.org/2000/svg">
<g id="video.fill.badge.checkmark">
<path id="video.fill.badge.checkmark_2" d="M7.5 15C11.5777 15 15 11.5955 15 7.49273C15 3.38991 11.6214 0 7.5 0C3.3932 0 0 3.38991 0 7.49273C0 11.6101 3.3932 15 7.5 15ZM6.62621 11.9156C6.34951 11.9156 6 11.7992 5.79612 11.5664L3.04369 8.5839C2.89806 8.42386 2.79612 8.13288 2.79612 7.88555C2.79612 7.24539 3.29126 6.82347 3.84466 6.82347C4.19417 6.82347 4.45631 6.96896 4.63107 7.17265L6.56796 9.28225L10.267 4.14646C10.4709 3.87003 10.7913 3.68089 11.1553 3.68089C11.7233 3.68089 12.2039 4.13191 12.2039 4.72842C12.2039 4.91756 12.1311 5.13579 11.9854 5.33948L7.5 11.5228C7.32524 11.7556 6.99029 11.9156 6.62621 11.9156Z" fill="#008D39"/>
</g>
</svg>
