<svg width="24" height="24" viewBox="0 0 24 24" fill="none" xmlns="http://www.w3.org/2000/svg">
<path d="M9 13.7059H9.39643C9.5015 13.7059 9.59536 13.6402 9.63133 13.5415L11.1073 9.48973C11.1588 9.34826 11.3634 9.36242 11.3949 9.50964L12.8784 16.4325C12.9108 16.5839 13.1236 16.5928 13.1686 16.4446L14.089 13.4127C14.121 13.3073 14.2181 13.2353 14.3282 13.2353H17" stroke="#3E43BE" stroke-linecap="round"/>
<path d="M8.95455 4.21429V4.21429C8.95455 4.88492 9.4982 5.42857 10.1688 5.42857H14.8312C15.5018 5.42857 16.0455 4.88492 16.0455 4.21429V4.21429M8.95455 4.21429V4.21429C8.95455 3.54365 9.4982 3 10.1688 3H14.8312C15.5018 3 16.0455 3.54365 16.0455 4.21429V4.21429M8.95455 4.21429V4.21429C8.06531 4.21429 7.6207 4.21429 7.26774 4.35316C6.75107 4.55644 6.34216 4.96536 6.13887 5.48202C6 5.83499 6 6.2796 6 7.16883V15C6 17.357 6 18.5355 6.73223 19.2678C7.46447 20 8.64298 20 11 20H14C16.357 20 17.5355 20 18.2678 19.2678C19 18.5355 19 17.357 19 15V7.16883C19 6.2796 19 5.83499 18.8611 5.48202C18.6578 4.96536 18.2489 4.55644 17.7323 4.35316C17.3793 4.21429 16.9347 4.21429 16.0455 4.21429V4.21429" stroke="#3E43BE"/>
</svg> 