<svg width="24" height="24" viewBox="0 0 24 24" fill="none" xmlns="http://www.w3.org/2000/svg">
<g id="clock">
<rect id="Rectangle 111" x="5.3999" y="3.96777" width="14" height="15" rx="7" fill="#F5CB91"/>
<path id="clock_2" d="M12.2896 19.547C16.5611 19.547 20.0868 16.0213 20.0868 11.7574C20.0868 7.49344 16.5536 3.96777 12.2821 3.96777C8.01814 3.96777 4.5 7.49344 4.5 11.7574C4.5 16.0213 8.02567 19.547 12.2896 19.547ZM12.2896 17.9951C8.83175 17.9951 6.06696 15.2153 6.06696 11.7574C6.06696 8.29953 8.83175 5.5272 12.2821 5.5272C15.74 5.5272 18.5198 8.29953 18.5273 11.7574C18.5349 15.2153 15.7475 17.9951 12.2896 17.9951ZM8.49275 12.7066H12.2821C12.6286 12.7066 12.8923 12.4429 12.8923 12.1039V7.17704C12.8923 6.83803 12.6286 6.57436 12.2821 6.57436C11.9506 6.57436 11.6869 6.83803 11.6869 7.17704V11.5013H8.49275C8.15374 11.5013 7.89007 11.7649 7.89007 12.1039C7.89007 12.4429 8.15374 12.7066 8.49275 12.7066Z" fill="#3E43BE"/>
</g>
</svg>
