<svg width="25" height="24" viewBox="0 0 25 24" fill="none" xmlns="http://www.w3.org/2000/svg">
<g id="hourglass.bottomhalf.fill">
<path id="hourglass.bottomhalf.fill_2" d="M8.63117 18.7549H16.2981C17.1456 18.7549 17.64 18.3104 17.64 17.4893V17.2633C17.6478 15.1614 15.2779 13.4513 14.3205 12.5774C14.038 12.3062 13.8732 12.0652 13.8732 11.7035C13.8732 11.3419 14.0302 11.1159 14.3205 10.8372C15.2701 9.94824 17.64 8.32101 17.64 6.15137V5.94043C17.64 5.11928 17.1456 4.6748 16.2981 4.6748H8.63117C7.8072 4.6748 7.35205 5.11928 7.35205 5.8877V6.15137C7.35205 8.32101 9.72196 9.94824 10.6636 10.8372C10.9618 11.1159 11.1188 11.3419 11.1188 11.7035C11.1188 12.0652 10.954 12.3062 10.6636 12.5774C9.71411 13.4513 7.35205 15.1614 7.35205 17.2633V17.542C7.35205 18.3104 7.8072 18.7549 8.63117 18.7549ZM8.98431 6.95745H16.0077C16.3059 6.95745 16.353 7.18345 16.1803 7.49986C15.4898 8.69768 13.1277 10.6489 12.4921 10.6489C11.8643 10.6489 9.51793 8.70522 8.81166 7.49986C8.63117 7.19099 8.6861 6.95745 8.98431 6.95745Z" fill="#3E43BE"/>
</g>
</svg>
