<svg width="24" height="24" viewBox="0 0 24 24" fill="none" xmlns="http://www.w3.org/2000/svg">
  <path d="M20 7.50001C20 9.433 18.433 11 16.5 11C14.567 11 12.5 9.433 12.5 7.50001C12.5 5.56701 14 3.00005 16.5 3.5C18.433 3.5 20 5.56701 20 7.50001Z" fill="#F5CB91"/>
  <path d="M22.5 3.5625C22.499 2.91828 22.2434 2.30056 21.789 1.84398C21.3345 1.38739 20.718 1.12896 20.0737 1.125H8.055C7.41045 1.12895 6.79354 1.38726 6.33844 1.84374C5.88338 2.30022 5.62695 2.91794 5.625 3.5625V11.25H1.875C1.77554 11.25 1.68016 11.2895 1.60983 11.3598C1.53951 11.4302 1.5 11.5255 1.5 11.625V16.8C1.50099 17.4471 1.75851 18.0675 2.21612 18.5251C2.67373 18.9827 3.29409 19.2403 3.94125 19.2413H9.75V21.045C9.75263 21.1194 9.7746 21.1917 9.81375 21.255L10.815 22.6987C10.8495 22.7484 10.8954 22.789 10.9489 22.8171C11.0025 22.8452 11.062 22.8599 11.1225 22.86C11.183 22.8599 11.2425 22.8452 11.2961 22.8171C11.3496 22.789 11.3955 22.7484 11.43 22.6987L12.1238 21.7013L12.8175 22.6987C12.8502 22.7512 12.8955 22.7948 12.9491 22.8255C13.0027 22.8563 13.0632 22.8732 13.125 22.875C13.1854 22.8749 13.245 22.8602 13.2985 22.8321C13.3521 22.804 13.398 22.7634 13.4325 22.7137L14.1262 21.7162L14.82 22.7137C14.8545 22.7634 14.9004 22.804 14.954 22.8321C15.0075 22.8602 15.067 22.8749 15.1275 22.875C15.188 22.8749 15.2475 22.8602 15.3011 22.8321C15.3546 22.804 15.4005 22.7634 15.435 22.7137L16.125 21.7162L16.815 22.7137C16.8494 22.764 16.8956 22.8051 16.9495 22.8336C17.0034 22.862 17.0634 22.8768 17.1244 22.8768C17.1853 22.8768 17.2453 22.862 17.2992 22.8336C17.3531 22.8051 17.3993 22.764 17.4338 22.7137L18.1275 21.7162L18.8212 22.7137C18.8558 22.7633 18.9018 22.8037 18.9553 22.8316C19.0089 22.8596 19.0684 22.8741 19.1287 22.8741C19.1891 22.8741 19.2486 22.8596 19.3022 22.8316C19.3557 22.8037 19.4017 22.7633 19.4363 22.7137L20.13 21.7162L20.8237 22.7137C20.8582 22.7634 20.9042 22.804 20.9577 22.8321C21.0112 22.8602 21.0708 22.8749 21.1312 22.875C21.1917 22.8749 21.2513 22.8602 21.3048 22.8321C21.3583 22.804 21.4043 22.7634 21.4387 22.7137L22.4437 21.2738C22.4818 21.2084 22.5049 21.1354 22.5112 21.06L22.5 3.5625ZM2.25 16.815V12H5.625V16.8C5.59643 17.2281 5.40623 17.6294 5.09291 17.9225C4.7796 18.2156 4.36658 18.3787 3.9375 18.3787C3.50844 18.3787 3.09541 18.2156 2.78209 17.9225C2.46876 17.6294 2.27856 17.2281 2.25 16.8V16.815ZM5.69625 18.5062C6.13331 18.0519 6.37673 17.4454 6.375 16.815V3.56625C6.375 3.11964 6.55163 2.69116 6.86636 2.37432C7.1811 2.05747 7.60841 1.87797 8.055 1.875C8.50324 1.875 8.93325 2.05255 9.25091 2.3688C9.56857 2.68505 9.74801 3.11426 9.75 3.5625V18.5062H5.69625ZM21.15 21.8438L20.4562 20.8425C20.4217 20.793 20.3757 20.7525 20.3222 20.7246C20.2686 20.6967 20.2091 20.6821 20.1488 20.6821C20.0884 20.6821 20.0289 20.6967 19.9753 20.7246C19.9218 20.7525 19.8758 20.793 19.8412 20.8425L19.125 21.8438L18.4313 20.8425C18.3968 20.7922 18.3506 20.7511 18.2967 20.7227C18.2428 20.6943 18.1828 20.6794 18.1219 20.6794C18.0609 20.6794 18.0009 20.6943 17.947 20.7227C17.8931 20.7511 17.8469 20.7922 17.8125 20.8425L17.1225 21.8438L16.4288 20.8425C16.3943 20.7928 16.3483 20.7522 16.2948 20.7241C16.2413 20.6961 16.1817 20.6814 16.1213 20.6813C16.0608 20.6814 16.0012 20.6961 15.9477 20.7241C15.8942 20.7522 15.8482 20.7928 15.8137 20.8425L15.12 21.8438L14.4263 20.8425C14.3917 20.793 14.3457 20.7525 14.2922 20.7246C14.2386 20.6967 14.1791 20.6821 14.1188 20.6821C14.0584 20.6821 13.9989 20.6967 13.9453 20.7246C13.8918 20.7525 13.8458 20.793 13.8113 20.8425L13.125 21.8438L12.4313 20.8425C12.3968 20.7928 12.3508 20.7522 12.2973 20.7241C12.2438 20.6961 12.1842 20.6814 12.1238 20.6813C12.0633 20.6814 12.0037 20.6961 11.9502 20.7241C11.8967 20.7522 11.8507 20.7928 11.8162 20.8425L11.1225 21.8438L10.5 20.9437V3.5625C10.4991 2.93221 10.253 2.32701 9.81375 1.875H20.0737C20.5191 1.87895 20.9448 2.05836 21.2586 2.37429C21.5725 2.69023 21.749 3.11719 21.75 3.5625V20.94L21.15 21.8438Z" fill="#3E43BE"/>
  <path d="M16.4401 6.87744H15.8214C15.7672 6.87894 15.7133 6.86975 15.6626 6.8504C15.612 6.83105 15.5657 6.80192 15.5264 6.76464C15.487 6.72737 15.4554 6.68274 15.4333 6.63324C15.4112 6.58374 15.3991 6.53038 15.3976 6.47619C15.3967 6.42354 15.407 6.37127 15.4277 6.32278C15.4483 6.27433 15.479 6.23079 15.5176 6.19494C15.6003 6.11833 15.7086 6.0755 15.8214 6.07494H16.9951C17.0946 6.07494 17.19 6.03545 17.2603 5.9651C17.3306 5.89479 17.3701 5.79943 17.3701 5.69994C17.3701 5.60049 17.3306 5.50513 17.2603 5.43478C17.19 5.36447 17.0946 5.32494 16.9951 5.32494H16.5001V4.81494C16.5001 4.71549 16.4606 4.62013 16.3903 4.54978C16.32 4.47947 16.2246 4.43994 16.1251 4.43994C16.0257 4.43994 15.9303 4.47947 15.86 4.54978C15.7896 4.62013 15.7501 4.71549 15.7501 4.81494V5.33244C15.4689 5.3471 15.2025 5.46298 15.0001 5.65869C14.8895 5.76414 14.8016 5.891 14.7416 6.03155C14.6816 6.1721 14.6509 6.32342 14.6514 6.47619C14.6528 6.62885 14.6844 6.77975 14.7441 6.92023C14.8039 7.0607 14.8908 7.18805 14.9998 7.29493C15.1088 7.40184 15.2378 7.48622 15.3794 7.54329C15.521 7.60033 15.6725 7.62894 15.8251 7.62744H16.4439C16.4985 7.62545 16.5531 7.63423 16.6043 7.65332C16.6556 7.6724 16.7026 7.70143 16.7427 7.7387C16.7827 7.77594 16.815 7.82075 16.8378 7.87052C16.8605 7.92028 16.8732 7.97402 16.8751 8.02869C16.8755 8.08074 16.865 8.1323 16.8443 8.18008C16.8237 8.22785 16.7933 8.27083 16.7551 8.30619C16.6724 8.38505 16.5619 8.42818 16.4476 8.42619H15.2664C15.1669 8.42619 15.0715 8.46572 15.0012 8.53603C14.9309 8.60638 14.8914 8.70174 14.8914 8.80119C14.8914 8.90068 14.9309 8.99604 15.0012 9.06639C15.0715 9.1367 15.1669 9.17619 15.2664 9.17619H15.7501V9.68994C15.7501 9.78943 15.7896 9.88479 15.86 9.95514C15.9303 10.0255 16.0257 10.0649 16.1251 10.0649C16.2246 10.0649 16.32 10.0255 16.3903 9.95514C16.4606 9.88479 16.5001 9.78943 16.5001 9.68994V9.17244C16.7806 9.15489 17.046 9.03943 17.2501 8.84619C17.3645 8.7422 17.4566 8.6162 17.5211 8.47573C17.5855 8.33525 17.6209 8.18319 17.6251 8.02869C17.6232 7.87524 17.5909 7.72363 17.5303 7.58267C17.4696 7.44167 17.3817 7.31402 17.2716 7.20707C17.1615 7.10012 17.0314 7.01593 16.8887 6.95938C16.746 6.90283 16.5936 6.87497 16.4401 6.87744Z" fill="#3E43BE"/>
  <path d="M16.1249 3.19116C15.3218 3.1919 14.537 3.43072 13.8696 3.87742C13.2022 4.32412 12.6823 4.95866 12.3755 5.70082C12.0686 6.44299 11.9887 7.25947 12.1459 8.04701C12.303 8.83459 12.6901 9.55789 13.2582 10.1255C13.8263 10.6931 14.55 11.0795 15.3377 11.2359C16.1254 11.3923 16.9418 11.3116 17.6837 11.0041C18.4255 10.6966 19.0596 10.1761 19.5057 9.50835C19.9518 8.84055 20.1899 8.05549 20.1899 7.25242C20.1889 6.17497 19.7602 5.14196 18.9979 4.38045C18.2357 3.61892 17.2024 3.19116 16.1249 3.19116ZM16.1249 10.5637C15.4698 10.5644 14.8292 10.3708 14.2842 10.0074C13.7392 9.64406 13.3142 9.12716 13.063 8.52217C12.8118 7.91719 12.7457 7.2513 12.8731 6.60874C13.0004 5.96614 13.3154 5.37581 13.7784 4.91235C14.2413 4.44889 14.8313 4.13314 15.4738 4.00507C16.1162 3.87701 16.7822 3.94234 17.3874 4.19287C17.9927 4.44337 18.5101 4.86776 18.8741 5.41237C19.2381 5.95699 19.4324 6.59734 19.4324 7.25242C19.4314 8.12966 19.0827 8.97075 18.4628 9.59141C17.8428 10.2121 17.0021 10.5617 16.1249 10.5637Z" fill="#3E43BE"/>
  <path d="M12 13.8489H15.75C15.8495 13.8489 15.9448 13.8094 16.0152 13.739C16.0855 13.6687 16.125 13.5733 16.125 13.4739C16.125 13.3744 16.0855 13.279 16.0152 13.2087C15.9448 13.1384 15.8495 13.0989 15.75 13.0989H12C11.9006 13.0989 11.8052 13.1384 11.7348 13.2087C11.6645 13.279 11.625 13.3744 11.625 13.4739C11.625 13.5733 11.6645 13.6687 11.7348 13.739C11.8052 13.8094 11.9006 13.8489 12 13.8489Z" fill="#3E43BE"/>
  <path d="M19.5 14.8876H12C11.9006 14.8876 11.8052 14.9271 11.7348 14.9974C11.6645 15.0677 11.625 15.1631 11.625 15.2626C11.625 15.362 11.6645 15.4574 11.7348 15.5277C11.8052 15.598 11.9006 15.6376 12 15.6376H19.5C19.5995 15.6376 19.6948 15.598 19.7652 15.5277C19.8355 15.4574 19.875 15.362 19.875 15.2626C19.875 15.1631 19.8355 15.0677 19.7652 14.9974C19.6948 14.9271 19.5995 14.8876 19.5 14.8876Z" fill="#3E43BE"/>
  <path d="M19.5 16.6725H12C11.9006 16.6725 11.8052 16.712 11.7348 16.7823C11.6645 16.8526 11.625 16.948 11.625 17.0475C11.625 17.1469 11.6645 17.2423 11.7348 17.3126C11.8052 17.383 11.9006 17.4225 12 17.4225H19.5C19.5995 17.4225 19.6948 17.383 19.7652 17.3126C19.8355 17.2423 19.875 17.1469 19.875 17.0475C19.875 16.948 19.8355 16.8526 19.7652 16.7823C19.6948 16.712 19.5995 16.6725 19.5 16.6725Z" fill="#3E43BE"/>
  <path d="M19.5 18.4575H12C11.9006 18.4575 11.8052 18.497 11.7348 18.5674C11.6645 18.6377 11.625 18.7331 11.625 18.8325C11.625 18.932 11.6645 19.0274 11.7348 19.0977C11.8052 19.168 11.9006 19.2075 12 19.2075H19.5C19.5995 19.2075 19.6948 19.168 19.7652 19.0977C19.8355 19.0274 19.875 18.932 19.875 18.8325C19.875 18.7331 19.8355 18.6377 19.7652 18.5674C19.6948 18.497 19.5995 18.4575 19.5 18.4575Z" fill="#3E43BE"/>
</svg>