<svg width="24" height="24" viewBox="0 0 24 24" fill="none" xmlns="http://www.w3.org/2000/svg">
<g id="envelope">
<path id="envelope_2" d="M4.3676 21H20.8781C22.8536 21 24 19.8526 24 17.6602V6.33978C24 4.14741 22.8433 3 20.6324 3H4.12194C2.14642 3 1 4.13717 1 6.33978V17.6602C1 19.8526 2.15665 21 4.3676 21ZM11.3485 12.3534L3.89675 4.97723C4.04005 4.9465 4.20383 4.92601 4.37784 4.92601H20.6222C20.8064 4.92601 20.9702 4.9465 21.1237 4.98748L13.6822 12.3534C13.2523 12.7735 12.8941 12.9579 12.5154 12.9579C12.1366 12.9579 11.7784 12.7632 11.3485 12.3534ZM2.91411 6.48321L8.48242 11.9641L2.91411 17.4758V6.48321ZM16.5483 11.9641L22.0859 6.51394V17.4553L16.5483 11.9641ZM4.37784 19.0637C4.19359 19.0637 4.01958 19.0433 3.86604 19.0125L9.7312 13.1935L10.2839 13.7467C11.0312 14.4741 11.7477 14.7814 12.5154 14.7814C13.2728 14.7814 13.9996 14.4741 14.7365 13.7467L15.2995 13.1935L21.1544 19.0023C20.9907 19.0433 20.8166 19.0637 20.6222 19.0637H4.37784Z" fill="#1C1C1E"/>
</g>
</svg>
