<svg width="45" height="45" viewBox="0 0 45 45" fill="none" xmlns="http://www.w3.org/2000/svg">
  <path d="M37.3333 12.3334V19.31C37.3333 19.31 32.69 19.3334 32.6667 19.31V12.3334H25.6667C25.6667 12.3334 25.69 7.69002 25.6667 7.66669H32.6667V0.666687H37.3333V7.66669H44.3333V12.3334H37.3333ZM30.3333 21.6667V14.6667H23.3333V7.66669H4.66667C2.1 7.66669 0 9.76669 0 12.3334V40.3333C0 42.9 2.1 45 4.66667 45H32.6667C35.2333 45 37.3333 42.9 37.3333 40.3333V21.6667H30.3333ZM4.66667 40.3333L11.6667 31L16.3333 38L23.3333 28.6667L32.6667 40.3333H4.66667Z" fill="#666666"/>
</svg>