<svg width="24" height="24" viewBox="0 0 24 24" fill="none" xmlns="http://www.w3.org/2000/svg">
<g id="fi:paperclip">
<path id="Vector" d="M2.55971 12.9501L11.7497 3.76008C12.8756 2.63424 14.4025 2.00174 15.9947 2.00174C17.5869 2.00174 19.1139 2.63424 20.2397 3.76008C21.3656 4.88592 21.998 6.4129 21.998 8.00508C21.998 9.59726 21.3656 11.1242 20.2397 12.2501L11.0497 21.4401C10.2991 22.1906 9.28117 22.6123 8.21971 22.6123C7.15825 22.6123 6.14027 22.1906 5.38971 21.4401C4.63915 20.6895 4.21749 19.6715 4.21749 18.6101C4.21749 17.5486 4.63915 16.5306 5.38971 15.7801L14.5897 6.59008C14.965 6.2148 15.474 6.00397 16.0047 6.00397C16.5354 6.00397 17.0444 6.2148 17.4197 6.59008C17.795 6.96536 18.0058 7.47435 18.0058 8.00508C18.0058 8.53581 17.795 9.0448 17.4197 9.42008L8.92971 17.9001" stroke="black" stroke-width="2" stroke-linecap="round" stroke-linejoin="round"/>
</g>
</svg>
