<svg width="20" height="19" viewBox="0 0 20 19" fill="none" xmlns="http://www.w3.org/2000/svg">
<path fill-rule="evenodd" clip-rule="evenodd" d="M6.69219 0.0572083C8.26257 0.0572083 9.53724 1.86468 9.53724 4.09272C9.53724 6.32075 8.26257 8.12822 6.69219 8.12822C5.12182 8.12822 3.84715 6.32229 3.84715 4.09272C3.84882 1.86468 5.12182 0.0572083 6.69219 0.0572083ZM10.3091 9.82592C13.6403 9.8321 14.0546 11.8746 16.8629 15.3705C18.2628 17.9139 16.4452 19.5173 13.3295 18.8308C11.9162 18.1644 10.9222 17.9294 9.92482 17.9603C8.19741 18.016 7.76138 19.0705 5.75164 18.9963C4.20131 18.9576 3.503 18.3561 3.36768 17.4393C3.22234 16.4652 3.62829 15.8498 4.1228 15.0442C6.044 11.9086 8.03035 9.43319 10.3091 9.82592ZM1.19756 6.04244C0.0231194 6.47227 -0.351097 8.17151 0.360583 9.83674C1.07226 11.502 2.60087 12.5039 3.77531 12.0741C4.94975 11.6442 5.32396 9.94497 4.61228 8.27975C3.9006 6.61452 2.372 5.6126 1.19756 6.04244ZM18.8024 6.04244C19.9769 6.47227 20.3511 8.17151 19.6394 9.83674C18.9277 11.502 17.3975 12.5039 16.2247 12.0741C15.0503 11.6442 14.676 9.94497 15.3877 8.27975C16.0994 6.61452 17.628 5.6126 18.8024 6.04244ZM13.256 0C14.8264 0 16.1011 1.80747 16.1011 4.03551C16.1011 6.26354 14.8264 8.07101 13.256 8.07101C11.6856 8.07101 10.411 6.26509 10.411 4.03551C10.4126 1.80747 11.6856 0 13.256 0Z" fill="#ACACAC"/>
</svg> 