<svg width="24" height="24" viewBox="0 0 24 24" fill="none" xmlns="http://www.w3.org/2000/svg">
<path d="M18.0677 4.66719C19.3602 6.14024 18.6339 8.62765 16.5 10.5C13 10.5 12.5 12.5 9.99991 10.5C8.70737 9.02698 9.36617 7.8723 11.5 5.99993C13.5 3.49998 16.7752 3.19415 18.0677 4.66719Z" fill="#F5CB91"/>
<path d="M4.84389 13.8068L12.6566 4.82911C13.9511 3.34165 16.2063 3.18518 17.6937 4.47963C19.1812 5.77409 19.3377 8.02928 18.0432 9.51675L16.8722 10.8623C16.294 10.6287 15.662 10.5001 15.0001 10.5001C12.2387 10.5001 10.0001 12.7386 10.0001 15.5001M4.84389 13.8068C3.54944 15.2942 3.70591 17.5494 5.19337 18.8439C7.03703 20.4483 9.25252 19.6182 10.6657 17.9943C10.2423 17.2602 10.0001 16.4084 10.0001 15.5001M4.84389 13.8068L9.14089 8.86905C9.92676 10.2505 10.6265 11.1856 11.5133 11.9164C10.5799 12.8248 10.0001 14.0947 10.0001 15.5001" stroke="#3E43BE"/>
<path d="M15.9604 5.48571C14.672 5.15332 13.8908 6.05109 13.5001 6.49997" stroke="#3E43BE" stroke-linecap="round"/>
<path d="M20 15.5C20 18.2614 17.7614 20.5 15 20.5C12.2386 20.5 10 18.2614 10 15.5C10 12.7386 12.2386 10.5 15 10.5C17.7614 10.5 20 12.7386 20 15.5Z" stroke="#3E43BE"/>
<path d="M11.6191 16.4059L18.3806 14.5942" stroke="#3E43BE" stroke-linecap="round"/>
</svg>
