<svg width="24" height="24" viewBox="0 0 24 24" fill="none" xmlns="http://www.w3.org/2000/svg">
<rect x="8" y="13.1387" width="5.93465" height="4.35957" transform="rotate(-47.2311 8 13.1387)" fill="#F5CB91"/>
<path d="M17.2781 6.62863L19.0459 8.3964M17.2781 6.62863L15.5104 4.86087M17.2781 6.62863L19.0459 4.86087M14.8033 4.15376C15.0794 4.4299 15.5104 4.86087 15.5104 4.86087M19.753 9.10351C19.4769 8.82737 19.0459 8.3964 19.0459 8.3964M19.0459 8.3964L15.5104 11.9319M15.5104 4.86087L11.9748 8.3964M10.2071 15.821V15.821C10.5976 16.2115 11.2308 16.2115 11.6213 15.821L15.5104 11.9319M10.2071 15.821L9.85352 16.1746C9.26774 16.7604 8.31799 16.7604 7.7322 16.1746V16.1746V16.1746C7.14642 15.5888 7.14642 14.639 7.7322 14.0533L8.08576 13.6997M10.2071 15.821L8.08576 13.6997M8.08576 13.6997V13.6997C7.69523 13.3092 7.69523 12.676 8.08576 12.2855L11.9748 8.3964M11.9748 8.3964L15.5104 11.9319M19.0459 4.86087L18.3582 4.17318C18.3456 4.16058 18.3375 4.14422 18.335 4.12657C18.3329 4.11105 18.3517 4.1017 18.3628 4.11278L19.794 5.54399C19.8051 5.55507 19.7957 5.57388 19.7802 5.57173C19.7626 5.5693 19.7462 5.56116 19.7336 5.54857L19.0459 4.86087Z" stroke="#3E43BE" stroke-linecap="round"/>
<path d="M4.82837 19.0784L7.73218 16.1746" stroke="#3E43BE" stroke-linecap="round"/>
<path d="M11.9749 14.7605L11.2678 14.0533" stroke="#3E43BE" stroke-linecap="round"/>
<path d="M13.0357 13.6998L12.3286 12.9927" stroke="#3E43BE" stroke-linecap="round"/>
<path d="M14.0963 12.6391L13.3892 11.932" stroke="#3E43BE" stroke-linecap="round"/>
</svg>
