<svg width="64" height="64" viewBox="0 0 64 64" fill="none" xmlns="http://www.w3.org/2000/svg">
  <path d="M31.9999 18.6666C31.2927 18.6666 30.6144 18.9475 30.1143 19.4476C29.6142 19.9477 29.3333 20.626 29.3333 21.3333V31.9999C29.3333 32.7072 29.6142 33.3854 30.1143 33.8855C30.6144 34.3856 31.2927 34.6666 31.9999 34.6666C32.7072 34.6666 33.3855 34.3856 33.8855 33.8855C34.3856 33.3854 34.6666 32.7072 34.6666 31.9999V21.3333C34.6666 20.626 34.3856 19.9477 33.8855 19.4476C33.3855 18.9475 32.7072 18.6666 31.9999 18.6666ZM34.4533 41.6532C34.3949 41.4833 34.3142 41.3219 34.2133 41.1732L33.8933 40.7733C33.5183 40.4032 33.0421 40.1526 32.5248 40.0529C32.0075 39.9532 31.4722 40.009 30.9866 40.2132C30.6634 40.3483 30.3658 40.5377 30.1066 40.7733C29.8594 41.0224 29.6639 41.3179 29.5312 41.6428C29.3985 41.9677 29.3312 42.3156 29.3333 42.6666C29.3375 43.0151 29.41 43.3593 29.5466 43.6799C29.6664 44.0108 29.8574 44.3114 30.1063 44.5602C30.3551 44.8091 30.6557 45.0002 30.9866 45.1199C31.3058 45.261 31.6509 45.3339 31.9999 45.3339C32.3489 45.3339 32.6941 45.261 33.0133 45.1199C33.3442 45.0002 33.6447 44.8091 33.8936 44.5602C34.1424 44.3114 34.3335 44.0108 34.4533 43.6799C34.5899 43.3593 34.6624 43.0151 34.6666 42.6666C34.6797 42.489 34.6797 42.3108 34.6666 42.1333C34.6207 41.9632 34.5487 41.8013 34.4533 41.6532ZM31.9999 5.33325C26.7258 5.33325 21.57 6.89722 17.1847 9.8274C12.7994 12.7576 9.38148 16.9223 7.36314 21.795C5.34481 26.6677 4.81672 32.0295 5.84566 37.2023C6.8746 42.3752 9.41435 47.1267 13.1438 50.8561C16.8732 54.5855 21.6247 57.1253 26.7975 58.1542C31.9704 59.1831 37.3321 58.655 42.2048 56.6367C47.0775 54.6184 51.2423 51.2004 54.1725 46.8151C57.1026 42.4298 58.6666 37.2741 58.6666 31.9999C58.6666 28.498 57.9768 25.0304 56.6367 21.795C55.2966 18.5597 53.3323 15.62 50.8561 13.1437C48.3799 10.6675 45.4402 8.70326 42.2048 7.36313C38.9695 6.02301 35.5018 5.33325 31.9999 5.33325ZM31.9999 53.3332C27.7806 53.3332 23.656 52.0821 20.1478 49.7379C16.6395 47.3938 13.9052 44.062 12.2905 40.1638C10.6758 36.2657 10.2534 31.9763 11.0765 27.838C11.8997 23.6997 13.9315 19.8985 16.915 16.915C19.8985 13.9315 23.6997 11.8997 27.838 11.0765C31.9763 10.2533 36.2657 10.6758 40.1638 12.2905C44.062 13.9052 47.3938 16.6395 49.7379 20.1478C52.0821 23.656 53.3333 27.7806 53.3333 31.9999C53.3333 37.6579 51.0857 43.0841 47.0849 47.0849C43.0841 51.0856 37.6579 53.3332 31.9999 53.3332Z" fill="black"/>
</svg>