<svg width="64" height="64" viewBox="0 0 64 64" fill="none" xmlns="http://www.w3.org/2000/svg">
<g id="u:exclamation-circle">
<path id="Vector" d="M32 18.6666C31.2927 18.6666 30.6145 18.9476 30.1144 19.4477C29.6143 19.9478 29.3333 20.6261 29.3333 21.3333V32C29.3333 32.7072 29.6143 33.3855 30.1144 33.8856C30.6145 34.3857 31.2927 34.6666 32 34.6666C32.7072 34.6666 33.3855 34.3857 33.8856 33.8856C34.3857 33.3855 34.6667 32.7072 34.6667 32V21.3333C34.6667 20.6261 34.3857 19.9478 33.8856 19.4477C33.3855 18.9476 32.7072 18.6666 32 18.6666ZM34.4533 41.6533C34.395 41.4834 34.3143 41.322 34.2133 41.1733L33.8933 40.7733C33.5183 40.4033 33.0421 40.1526 32.5248 40.053C32.0075 39.9533 31.4723 40.0091 30.9867 40.2133C30.6635 40.3484 30.3659 40.5378 30.1067 40.7733C29.8595 41.0225 29.664 41.318 29.5313 41.6429C29.3986 41.9678 29.3313 42.3157 29.3333 42.6666C29.3375 43.0151 29.41 43.3594 29.5467 43.68C29.6664 44.0109 29.8575 44.3114 30.1064 44.5603C30.3552 44.8091 30.6557 45.0002 30.9867 45.12C31.3059 45.2611 31.651 45.3339 32 45.3339C32.349 45.3339 32.6941 45.2611 33.0133 45.12C33.3442 45.0002 33.6448 44.8091 33.8936 44.5603C34.1425 44.3114 34.3336 44.0109 34.4533 43.68C34.59 43.3594 34.6624 43.0151 34.6667 42.6666C34.6798 42.4891 34.6798 42.3108 34.6667 42.1333C34.6207 41.9633 34.5488 41.8013 34.4533 41.6533ZM32 5.33331C26.7258 5.33331 21.5701 6.89729 17.1848 9.82746C12.7995 12.7576 9.38154 16.9224 7.3632 21.7951C5.34487 26.6678 4.81678 32.0296 5.84572 37.2024C6.87466 42.3752 9.41441 47.1268 13.1438 50.8562C16.8732 54.5856 21.6248 57.1253 26.7976 58.1543C31.9704 59.1832 37.3322 58.6551 42.2049 56.6368C47.0776 54.6184 51.2423 51.2005 54.1725 46.8152C57.1027 42.4299 58.6667 37.2741 58.6667 32C58.6667 28.4981 57.9769 25.0304 56.6368 21.7951C55.2967 18.5597 53.3324 15.62 50.8562 13.1438C48.3799 10.6676 45.4402 8.70332 42.2049 7.36319C38.9695 6.02307 35.5019 5.33331 32 5.33331ZM32 53.3333C27.7807 53.3333 23.6561 52.0821 20.1478 49.738C16.6396 47.3939 13.9052 44.062 12.2906 40.1639C10.6759 36.2657 10.2534 31.9763 11.0766 27.8381C11.8997 23.6998 13.9315 19.8986 16.915 16.915C19.8986 13.9315 23.6998 11.8997 27.8381 11.0766C31.9763 10.2534 36.2657 10.6759 40.1639 12.2905C44.0621 13.9052 47.3939 16.6396 49.738 20.1478C52.0821 23.6561 53.3333 27.7806 53.3333 32C53.3333 37.6579 51.0857 43.0841 47.0849 47.0849C43.0842 51.0857 37.6579 53.3333 32 53.3333Z" fill="#F0900C"/>
</g>
</svg>
